<mxfile host="Electron" modified="2024-04-15T12:42:40.472Z" agent="Mozilla/5.0 (Macintosh; Intel Mac OS X 10_15_7) AppleWebKit/537.36 (KHTML, like Gecko) draw.io/23.1.5 Chrome/120.0.6099.109 Electron/28.1.0 Safari/537.36" etag="h-qZlTOiWaZZJN4dpjP4" version="23.1.5" type="device">
  <diagram name="Page-1" id="F-X17j0oduSZhd4kZhE-">
    <mxGraphModel dx="1907" dy="1864" grid="1" gridSize="10" guides="1" tooltips="1" connect="1" arrows="1" fold="1" page="1" pageScale="1" pageWidth="827" pageHeight="1169" math="0" shadow="0">
      <root>
        <mxCell id="0" />
        <mxCell id="1" parent="0" />
        <mxCell id="uwNRXV57qsA4jM2oc9Gh-1" value="main.js" style="rounded=1;whiteSpace=wrap;html=1;" vertex="1" parent="1">
          <mxGeometry x="110" y="60" width="120" height="60" as="geometry" />
        </mxCell>
        <mxCell id="uwNRXV57qsA4jM2oc9Gh-2" value="chartConfig.js" style="rounded=1;whiteSpace=wrap;html=1;" vertex="1" parent="1">
          <mxGeometry x="240" y="-200" width="120" height="60" as="geometry" />
        </mxCell>
        <mxCell id="uwNRXV57qsA4jM2oc9Gh-3" value="command.js" style="rounded=1;whiteSpace=wrap;html=1;" vertex="1" parent="1">
          <mxGeometry x="250" y="-190" width="120" height="60" as="geometry" />
        </mxCell>
        <mxCell id="uwNRXV57qsA4jM2oc9Gh-4" value="dragBar.js" style="rounded=1;whiteSpace=wrap;html=1;" vertex="1" parent="1">
          <mxGeometry x="260" y="-180" width="120" height="60" as="geometry" />
        </mxCell>
        <mxCell id="uwNRXV57qsA4jM2oc9Gh-5" value="keyBindings.js" style="rounded=1;whiteSpace=wrap;html=1;" vertex="1" parent="1">
          <mxGeometry x="270" y="-170" width="120" height="60" as="geometry" />
        </mxCell>
        <mxCell id="uwNRXV57qsA4jM2oc9Gh-6" value="plotter.js" style="rounded=1;whiteSpace=wrap;html=1;" vertex="1" parent="1">
          <mxGeometry x="280" y="-160" width="120" height="60" as="geometry" />
        </mxCell>
        <mxCell id="uwNRXV57qsA4jM2oc9Gh-7" value="port.js" style="rounded=1;whiteSpace=wrap;html=1;" vertex="1" parent="1">
          <mxGeometry x="290" y="-150" width="120" height="60" as="geometry" />
        </mxCell>
        <mxCell id="uwNRXV57qsA4jM2oc9Gh-8" value="record.js" style="rounded=1;whiteSpace=wrap;html=1;" vertex="1" parent="1">
          <mxGeometry x="300" y="-140" width="120" height="60" as="geometry" />
        </mxCell>
        <mxCell id="uwNRXV57qsA4jM2oc9Gh-9" value="serial.js" style="rounded=1;whiteSpace=wrap;html=1;" vertex="1" parent="1">
          <mxGeometry x="310" y="-130" width="120" height="60" as="geometry" />
        </mxCell>
        <mxCell id="uwNRXV57qsA4jM2oc9Gh-10" value="shared.js" style="rounded=1;whiteSpace=wrap;html=1;" vertex="1" parent="1">
          <mxGeometry x="320" y="-120" width="120" height="60" as="geometry" />
        </mxCell>
        <mxCell id="uwNRXV57qsA4jM2oc9Gh-11" value="tabs.js" style="rounded=1;whiteSpace=wrap;html=1;" vertex="1" parent="1">
          <mxGeometry x="330" y="-110" width="120" height="60" as="geometry" />
        </mxCell>
        <mxCell id="uwNRXV57qsA4jM2oc9Gh-12" value="terminal.js" style="rounded=1;whiteSpace=wrap;html=1;" vertex="1" parent="1">
          <mxGeometry x="340" y="-100" width="120" height="60" as="geometry" />
        </mxCell>
        <mxCell id="uwNRXV57qsA4jM2oc9Gh-14" value="config&lt;br&gt;buttons" style="rounded=1;whiteSpace=wrap;html=1;" vertex="1" parent="1">
          <mxGeometry x="350" y="-280" width="120" height="60" as="geometry" />
        </mxCell>
        <mxCell id="uwNRXV57qsA4jM2oc9Gh-15" value="config&lt;br&gt;keybindings" style="rounded=1;whiteSpace=wrap;html=1;" vertex="1" parent="1">
          <mxGeometry x="360" y="-270" width="120" height="60" as="geometry" />
        </mxCell>
        <mxCell id="uwNRXV57qsA4jM2oc9Gh-16" value="index.ejs" style="rounded=1;whiteSpace=wrap;html=1;" vertex="1" parent="1">
          <mxGeometry x="110" y="160" width="120" height="60" as="geometry" />
        </mxCell>
        <mxCell id="uwNRXV57qsA4jM2oc9Gh-18" value="" style="endArrow=classic;html=1;rounded=0;exitX=0.5;exitY=1;exitDx=0;exitDy=0;entryX=0.5;entryY=0;entryDx=0;entryDy=0;" edge="1" parent="1" source="uwNRXV57qsA4jM2oc9Gh-1" target="uwNRXV57qsA4jM2oc9Gh-16">
          <mxGeometry width="50" height="50" relative="1" as="geometry">
            <mxPoint x="160" y="160" as="sourcePoint" />
            <mxPoint x="210" y="110" as="targetPoint" />
          </mxGeometry>
        </mxCell>
        <mxCell id="uwNRXV57qsA4jM2oc9Gh-23" value="template" style="swimlane;horizontal=0;whiteSpace=wrap;html=1;" vertex="1" parent="1">
          <mxGeometry x="-310" y="250" width="960" height="120" as="geometry" />
        </mxCell>
        <mxCell id="uwNRXV57qsA4jM2oc9Gh-19" value="header.ejs" style="rounded=1;whiteSpace=wrap;html=1;" vertex="1" parent="uwNRXV57qsA4jM2oc9Gh-23">
          <mxGeometry x="40" y="20" width="120" height="60" as="geometry" />
        </mxCell>
        <mxCell id="uwNRXV57qsA4jM2oc9Gh-29" value="footer.ejs" style="rounded=1;whiteSpace=wrap;html=1;" vertex="1" parent="uwNRXV57qsA4jM2oc9Gh-23">
          <mxGeometry x="820" y="20" width="120" height="60" as="geometry" />
        </mxCell>
        <mxCell id="uwNRXV57qsA4jM2oc9Gh-28" value="myTerminal.ejs" style="rounded=1;whiteSpace=wrap;html=1;" vertex="1" parent="uwNRXV57qsA4jM2oc9Gh-23">
          <mxGeometry x="690" y="20" width="120" height="60" as="geometry" />
        </mxCell>
        <mxCell id="uwNRXV57qsA4jM2oc9Gh-27" value="apps.ejs" style="rounded=1;whiteSpace=wrap;html=1;" vertex="1" parent="uwNRXV57qsA4jM2oc9Gh-23">
          <mxGeometry x="560" y="20" width="120" height="60" as="geometry" />
        </mxCell>
        <mxCell id="uwNRXV57qsA4jM2oc9Gh-26" value="tabs.ejs" style="rounded=1;whiteSpace=wrap;html=1;" vertex="1" parent="uwNRXV57qsA4jM2oc9Gh-23">
          <mxGeometry x="430" y="20" width="120" height="60" as="geometry" />
        </mxCell>
        <mxCell id="uwNRXV57qsA4jM2oc9Gh-25" value="portBar.ejs" style="rounded=1;whiteSpace=wrap;html=1;" vertex="1" parent="uwNRXV57qsA4jM2oc9Gh-23">
          <mxGeometry x="300" y="20" width="120" height="60" as="geometry" />
        </mxCell>
        <mxCell id="uwNRXV57qsA4jM2oc9Gh-24" value="navBar.ejs" style="rounded=1;whiteSpace=wrap;html=1;" vertex="1" parent="uwNRXV57qsA4jM2oc9Gh-23">
          <mxGeometry x="170" y="20" width="120" height="60" as="geometry" />
        </mxCell>
        <mxCell id="uwNRXV57qsA4jM2oc9Gh-33" value="" style="endArrow=classic;html=1;rounded=0;entryX=0.5;entryY=0;entryDx=0;entryDy=0;" edge="1" parent="uwNRXV57qsA4jM2oc9Gh-23">
          <mxGeometry width="50" height="50" relative="1" as="geometry">
            <mxPoint x="359.76" y="-10" as="sourcePoint" />
            <mxPoint x="359.76" y="20" as="targetPoint" />
          </mxGeometry>
        </mxCell>
        <mxCell id="uwNRXV57qsA4jM2oc9Gh-35" value="" style="endArrow=classic;html=1;rounded=0;entryX=0.5;entryY=0;entryDx=0;entryDy=0;" edge="1" parent="uwNRXV57qsA4jM2oc9Gh-23">
          <mxGeometry width="50" height="50" relative="1" as="geometry">
            <mxPoint x="489.76" y="-10" as="sourcePoint" />
            <mxPoint x="489.76" y="20" as="targetPoint" />
          </mxGeometry>
        </mxCell>
        <mxCell id="uwNRXV57qsA4jM2oc9Gh-36" value="" style="endArrow=classic;html=1;rounded=0;entryX=0.5;entryY=0;entryDx=0;entryDy=0;" edge="1" parent="uwNRXV57qsA4jM2oc9Gh-23">
          <mxGeometry width="50" height="50" relative="1" as="geometry">
            <mxPoint x="619.76" y="-10" as="sourcePoint" />
            <mxPoint x="619.76" y="20" as="targetPoint" />
          </mxGeometry>
        </mxCell>
        <mxCell id="uwNRXV57qsA4jM2oc9Gh-37" value="" style="endArrow=classic;html=1;rounded=0;entryX=0.5;entryY=0;entryDx=0;entryDy=0;" edge="1" parent="uwNRXV57qsA4jM2oc9Gh-23">
          <mxGeometry width="50" height="50" relative="1" as="geometry">
            <mxPoint x="749.76" y="-10" as="sourcePoint" />
            <mxPoint x="749.76" y="20" as="targetPoint" />
          </mxGeometry>
        </mxCell>
        <mxCell id="uwNRXV57qsA4jM2oc9Gh-30" value="" style="endArrow=classic;html=1;rounded=0;exitX=0.5;exitY=1;exitDx=0;exitDy=0;entryX=0.5;entryY=0;entryDx=0;entryDy=0;" edge="1" parent="1" source="uwNRXV57qsA4jM2oc9Gh-16" target="uwNRXV57qsA4jM2oc9Gh-19">
          <mxGeometry width="50" height="50" relative="1" as="geometry">
            <mxPoint x="190" y="240" as="sourcePoint" />
            <mxPoint x="40" y="240" as="targetPoint" />
            <Array as="points">
              <mxPoint x="170" y="240" />
              <mxPoint x="-210" y="240" />
            </Array>
          </mxGeometry>
        </mxCell>
        <mxCell id="uwNRXV57qsA4jM2oc9Gh-32" value="" style="endArrow=classic;html=1;rounded=0;entryX=0.5;entryY=0;entryDx=0;entryDy=0;" edge="1" parent="1" target="uwNRXV57qsA4jM2oc9Gh-24">
          <mxGeometry width="50" height="50" relative="1" as="geometry">
            <mxPoint x="-80" y="240" as="sourcePoint" />
            <mxPoint x="-10" y="230" as="targetPoint" />
          </mxGeometry>
        </mxCell>
        <mxCell id="uwNRXV57qsA4jM2oc9Gh-34" value="" style="endArrow=classic;html=1;rounded=0;exitX=0.5;exitY=1;exitDx=0;exitDy=0;entryX=0.5;entryY=0;entryDx=0;entryDy=0;" edge="1" parent="1" target="uwNRXV57qsA4jM2oc9Gh-29">
          <mxGeometry width="50" height="50" relative="1" as="geometry">
            <mxPoint x="170" y="220" as="sourcePoint" />
            <mxPoint x="230" y="260" as="targetPoint" />
            <Array as="points">
              <mxPoint x="170" y="240" />
              <mxPoint x="570" y="240" />
            </Array>
          </mxGeometry>
        </mxCell>
        <mxCell id="uwNRXV57qsA4jM2oc9Gh-38" value="" style="shape=note;whiteSpace=wrap;html=1;backgroundOutline=1;fontColor=#000000;darkOpacity=0.05;fillColor=#FFF9B2;strokeColor=none;fillStyle=solid;direction=west;gradientDirection=north;gradientColor=#FFF2A1;shadow=1;size=20;pointerEvents=1;" vertex="1" parent="1">
          <mxGeometry x="140" y="270" width="140" height="160" as="geometry" />
        </mxCell>
      </root>
    </mxGraphModel>
  </diagram>
</mxfile>
